solid OpenSCAD_Model
  facet normal -1 0 0
    outer loop
      vertex 37.81 -66.5409 -55.6147
      vertex 37.81 -48.5409 -41.0148
      vertex 37.81 -48.5409 -55.6147
    endloop
  endfacet
  facet normal -1 -0 0
    outer loop
      vertex 37.81 -48.5409 -41.0148
      vertex 37.81 -66.5409 -55.6147
      vertex 37.81 -66.5409 -41.0148
    endloop
  endfacet
  facet normal 1 -0 0
    outer loop
      vertex 53.81 -66.5409 -41.0148
      vertex 53.81 -48.5409 -55.6147
      vertex 53.81 -48.5409 -41.0148
    endloop
  endfacet
  facet normal 1 0 0
    outer loop
      vertex 53.81 -48.5409 -55.6147
      vertex 53.81 -66.5409 -41.0148
      vertex 53.81 -66.5409 -55.6147
    endloop
  endfacet
  facet normal 0 -1 0
    outer loop
      vertex 37.81 -66.5409 -55.6147
      vertex 53.81 -66.5409 -41.0148
      vertex 37.81 -66.5409 -41.0148
    endloop
  endfacet
  facet normal 0 -1 -0
    outer loop
      vertex 53.81 -66.5409 -41.0148
      vertex 37.81 -66.5409 -55.6147
      vertex 53.81 -66.5409 -55.6147
    endloop
  endfacet
  facet normal -0 0 1
    outer loop
      vertex 37.81 -48.5409 -41.0148
      vertex 53.81 -66.5409 -41.0148
      vertex 53.81 -48.5409 -41.0148
    endloop
  endfacet
  facet normal 0 0 1
    outer loop
      vertex 53.81 -66.5409 -41.0148
      vertex 37.81 -48.5409 -41.0148
      vertex 37.81 -66.5409 -41.0148
    endloop
  endfacet
  facet normal 0 1 -0
    outer loop
      vertex 53.81 -48.5409 -55.6147
      vertex 37.81 -48.5409 -41.0148
      vertex 53.81 -48.5409 -41.0148
    endloop
  endfacet
  facet normal 0 1 0
    outer loop
      vertex 37.81 -48.5409 -41.0148
      vertex 53.81 -48.5409 -55.6147
      vertex 37.81 -48.5409 -55.6147
    endloop
  endfacet
  facet normal 0 0 -1
    outer loop
      vertex 37.81 -66.5409 -55.6147
      vertex 53.81 -48.5409 -55.6147
      vertex 53.81 -66.5409 -55.6147
    endloop
  endfacet
  facet normal -0 0 -1
    outer loop
      vertex 53.81 -48.5409 -55.6147
      vertex 37.81 -66.5409 -55.6147
      vertex 37.81 -48.5409 -55.6147
    endloop
  endfacet
endsolid OpenSCAD_Model
