solid OpenSCAD_Model
  facet normal 1 0 0
    outer loop
      vertex 34.6 -11.4 -4
      vertex 34.6 -49.1623 -0.235199
      vertex 34.6 -49.4515 -1.125
    endloop
  endfacet
  facet normal 1 -4.25269e-17 -2.96059e-16
    outer loop
      vertex 34.6 -11.4 44
      vertex 34.6 -49.7279 1.50554
      vertex 34.6 -11.4 -4
    endloop
  endfacet
  facet normal 1 0 0
    outer loop
      vertex 34.6 -59.4 -4
      vertex 34.6 -53.6377 -0.235199
      vertex 34.6 -53.5399 0.695282
    endloop
  endfacet
  facet normal 1 -3.24092e-16 -3.82678e-16
    outer loop
      vertex 34.6 -59.4 44
      vertex 34.6 -53.0721 1.50554
      vertex 34.6 -53.3486 38.875
    endloop
  endfacet
  facet normal 1 0 0
    outer loop
      vertex 34.6 -53.3486 -1.12502
      vertex 34.6 -53.6377 -0.235199
      vertex 34.6 -59.4 -4
    endloop
  endfacet
  facet normal 1 0 0
    outer loop
      vertex 34.6 -52.7225 -1.8203
      vertex 34.6 -53.3486 -1.12502
      vertex 34.6 -59.4 -4
    endloop
  endfacet
  facet normal 1 0 0
    outer loop
      vertex 34.6 -50.9322 -2.20084
      vertex 34.6 -51.8678 -2.20084
      vertex 34.6 -59.4 -4
    endloop
  endfacet
  facet normal 1 0 0
    outer loop
      vertex 34.6 -51.8678 -2.20084
      vertex 34.6 -52.7225 -1.8203
      vertex 34.6 -59.4 -4
    endloop
  endfacet
  facet normal 1 0 0
    outer loop
      vertex 34.6 -11.4 -4
      vertex 34.6 -50.9322 -2.20084
      vertex 34.6 -59.4 -4
    endloop
  endfacet
  facet normal 1 0 0
    outer loop
      vertex 34.6 -11.4 -4
      vertex 34.6 -50.0775 -1.8203
      vertex 34.6 -50.9322 -2.20084
    endloop
  endfacet
  facet normal 1 0 0
    outer loop
      vertex 34.6 -11.4 -4
      vertex 34.6 -49.4515 -1.125
      vertex 34.6 -50.0775 -1.8203
    endloop
  endfacet
  facet normal 1 0 0
    outer loop
      vertex 34.6 -49.2601 0.695282
      vertex 34.6 -49.1623 -0.235199
      vertex 34.6 -11.4 -4
    endloop
  endfacet
  facet normal 1 0 0
    outer loop
      vertex 34.6 -49.7279 1.50554
      vertex 34.6 -49.2601 0.695282
      vertex 34.6 -11.4 -4
    endloop
  endfacet
  facet normal 1 -1.76028e-16 -3.95373e-16
    outer loop
      vertex 34.6 -52.7225 38.1797
      vertex 34.6 -52.3152 2.05547
      vertex 34.6 -51.8678 37.7992
    endloop
  endfacet
  facet normal 1 2.83484e-16 -3.90192e-16
    outer loop
      vertex 34.6 -52.7225 38.1797
      vertex 34.6 -53.0721 1.50554
      vertex 34.6 -52.3152 2.05547
    endloop
  endfacet
  facet normal 1 -4.2585e-16 -3.83431e-16
    outer loop
      vertex 34.6 -52.7225 38.1797
      vertex 34.6 -53.3486 38.875
      vertex 34.6 -53.0721 1.50554
    endloop
  endfacet
  facet normal 1 0 0
    outer loop
      vertex 34.6 -53.6377 39.7648
      vertex 34.6 -59.4 44
      vertex 34.6 -53.3486 38.875
    endloop
  endfacet
  facet normal 1 2.57584e-16 -2.96059e-16
    outer loop
      vertex 34.6 -53.0721 1.50554
      vertex 34.6 -59.4 44
      vertex 34.6 -59.4 -4
    endloop
  endfacet
  facet normal 1 0 0
    outer loop
      vertex 34.6 -59.4 -4
      vertex 34.6 -53.5399 0.695282
      vertex 34.6 -53.0721 1.50554
    endloop
  endfacet
  facet normal 1 8.47376e-17 -3.98637e-16
    outer loop
      vertex 34.6 -51.8678 37.7992
      vertex 34.6 -52.3152 2.05547
      vertex 34.6 -51.4 2.25
    endloop
  endfacet
  facet normal 1 0 -3.99752e-16
    outer loop
      vertex 34.6 -50.9322 37.7992
      vertex 34.6 -51.8678 37.7992
      vertex 34.6 -51.4 2.25
    endloop
  endfacet
  facet normal 1 -8.4739e-17 -3.98637e-16
    outer loop
      vertex 34.6 -50.4849 2.05547
      vertex 34.6 -50.9322 37.7992
      vertex 34.6 -51.4 2.25
    endloop
  endfacet
  facet normal 1 1.76028e-16 -3.95373e-16
    outer loop
      vertex 34.6 -50.4849 2.05547
      vertex 34.6 -50.0775 38.1797
      vertex 34.6 -50.9322 37.7992
    endloop
  endfacet
  facet normal 1 -2.83484e-16 -3.90192e-16
    outer loop
      vertex 34.6 -50.4849 2.05547
      vertex 34.6 -49.7279 1.50554
      vertex 34.6 -50.0775 38.1797
    endloop
  endfacet
  facet normal 1 4.2585e-16 -3.83431e-16
    outer loop
      vertex 34.6 -50.0775 38.1797
      vertex 34.6 -49.7279 1.50554
      vertex 34.6 -49.4515 38.875
    endloop
  endfacet
  facet normal 1 5.12695e-17 -3.80659e-16
    outer loop
      vertex 34.6 -49.4515 38.875
      vertex 34.6 -49.7279 1.50554
      vertex 34.6 -11.4 44
    endloop
  endfacet
  facet normal 1 -0 0
    outer loop
      vertex 34.6 -49.1623 39.7648
      vertex 34.6 -49.4515 38.875
      vertex 34.6 -11.4 44
    endloop
  endfacet
  facet normal 1 -0 0
    outer loop
      vertex 34.6 -49.2601 40.6953
      vertex 34.6 -49.1623 39.7648
      vertex 34.6 -11.4 44
    endloop
  endfacet
  facet normal 1 -0 0
    outer loop
      vertex 34.6 -49.7279 41.5055
      vertex 34.6 -49.2601 40.6953
      vertex 34.6 -11.4 44
    endloop
  endfacet
  facet normal 1 -0 0
    outer loop
      vertex 34.6 -51.4 42.25
      vertex 34.6 -50.4849 42.0555
      vertex 34.6 -11.4 44
    endloop
  endfacet
  facet normal 1 -0 0
    outer loop
      vertex 34.6 -50.4849 42.0555
      vertex 34.6 -49.7279 41.5055
      vertex 34.6 -11.4 44
    endloop
  endfacet
  facet normal 1 0 -0
    outer loop
      vertex 34.6 -51.4 42.25
      vertex 34.6 -11.4 44
      vertex 34.6 -59.4 44
    endloop
  endfacet
  facet normal 1 0 -0
    outer loop
      vertex 34.6 -52.3152 42.0555
      vertex 34.6 -51.4 42.25
      vertex 34.6 -59.4 44
    endloop
  endfacet
  facet normal 1 0 -0
    outer loop
      vertex 34.6 -53.0721 41.5055
      vertex 34.6 -52.3152 42.0555
      vertex 34.6 -59.4 44
    endloop
  endfacet
  facet normal 1 0 -0
    outer loop
      vertex 34.6 -53.6377 39.7648
      vertex 34.6 -53.5399 40.6953
      vertex 34.6 -59.4 44
    endloop
  endfacet
  facet normal 1 0 -0
    outer loop
      vertex 34.6 -53.5399 40.6953
      vertex 34.6 -53.0721 41.5055
      vertex 34.6 -59.4 44
    endloop
  endfacet
  facet normal -1 0 0
    outer loop
      vertex 33.8 -49.4515 -1.125
      vertex 33.8 -49.1623 -0.235199
      vertex 33.8 -11.4 -4
    endloop
  endfacet
  facet normal -1 4.25269e-17 2.96059e-16
    outer loop
      vertex 33.8 -11.4 -4
      vertex 33.8 -49.7279 1.50554
      vertex 33.8 -11.4 44
    endloop
  endfacet
  facet normal -1 0 0
    outer loop
      vertex 33.8 -53.5399 0.695282
      vertex 33.8 -53.6377 -0.235199
      vertex 33.8 -59.4 -4
    endloop
  endfacet
  facet normal -1 -2.36315e-15 -1.74835e-17
    outer loop
      vertex 33.8 -53.3486 38.875
      vertex 33.8 -53.0721 1.50554
      vertex 33.8 -59.4 44
    endloop
  endfacet
  facet normal -1 0 0
    outer loop
      vertex 33.8 -59.4 -4
      vertex 33.8 -53.6377 -0.235199
      vertex 33.8 -53.3486 -1.12502
    endloop
  endfacet
  facet normal -1 0 0
    outer loop
      vertex 33.8 -59.4 -4
      vertex 33.8 -53.3486 -1.12502
      vertex 33.8 -52.7225 -1.8203
    endloop
  endfacet
  facet normal -1 0 0
    outer loop
      vertex 33.8 -59.4 -4
      vertex 33.8 -51.8678 -2.20084
      vertex 33.8 -50.9322 -2.20084
    endloop
  endfacet
  facet normal -1 0 0
    outer loop
      vertex 33.8 -59.4 -4
      vertex 33.8 -52.7225 -1.8203
      vertex 33.8 -51.8678 -2.20084
    endloop
  endfacet
  facet normal -1 0 0
    outer loop
      vertex 33.8 -59.4 -4
      vertex 33.8 -50.9322 -2.20084
      vertex 33.8 -11.4 -4
    endloop
  endfacet
  facet normal -1 0 0
    outer loop
      vertex 33.8 -50.9322 -2.20084
      vertex 33.8 -50.0775 -1.8203
      vertex 33.8 -11.4 -4
    endloop
  endfacet
  facet normal -1 0 0
    outer loop
      vertex 33.8 -50.0775 -1.8203
      vertex 33.8 -49.4515 -1.125
      vertex 33.8 -11.4 -4
    endloop
  endfacet
  facet normal -1 0 0
    outer loop
      vertex 33.8 -11.4 -4
      vertex 33.8 -49.1623 -0.235199
      vertex 33.8 -49.2601 0.695282
    endloop
  endfacet
  facet normal -1 0 0
    outer loop
      vertex 33.8 -11.4 -4
      vertex 33.8 -49.2601 0.695282
      vertex 33.8 -49.7279 1.50554
    endloop
  endfacet
  facet normal -1 -0 0
    outer loop
      vertex 33.8 -51.8678 37.7992
      vertex 33.8 -52.3152 2.05547
      vertex 33.8 -52.7225 38.1797
    endloop
  endfacet
  facet normal -1 -0 0
    outer loop
      vertex 33.8 -52.3152 2.05547
      vertex 33.8 -53.0721 1.50554
      vertex 33.8 -52.7225 38.1797
    endloop
  endfacet
  facet normal -1 0 0
    outer loop
      vertex 33.8 -53.0721 1.50554
      vertex 33.8 -53.3486 38.875
      vertex 33.8 -52.7225 38.1797
    endloop
  endfacet
  facet normal -1 -3.23992e-15 -1.05275e-15
    outer loop
      vertex 33.8 -53.3486 38.875
      vertex 33.8 -59.4 44
      vertex 33.8 -53.6377 39.7648
    endloop
  endfacet
  facet normal -1 -2.57584e-16 2.96059e-16
    outer loop
      vertex 33.8 -59.4 -4
      vertex 33.8 -59.4 44
      vertex 33.8 -53.0721 1.50554
    endloop
  endfacet
  facet normal -1 0 0
    outer loop
      vertex 33.8 -53.0721 1.50554
      vertex 33.8 -53.5399 0.695282
      vertex 33.8 -59.4 -4
    endloop
  endfacet
  facet normal -1 -0 0
    outer loop
      vertex 33.8 -51.4 2.25
      vertex 33.8 -52.3152 2.05547
      vertex 33.8 -51.8678 37.7992
    endloop
  endfacet
  facet normal -1 0 0
    outer loop
      vertex 33.8 -51.4 2.25
      vertex 33.8 -51.8678 37.7992
      vertex 33.8 -50.9322 37.7992
    endloop
  endfacet
  facet normal -1 0 0
    outer loop
      vertex 33.8 -51.4 2.25
      vertex 33.8 -50.9322 37.7992
      vertex 33.8 -50.4849 2.05547
    endloop
  endfacet
  facet normal -1 0 0
    outer loop
      vertex 33.8 -50.9322 37.7992
      vertex 33.8 -50.0775 38.1797
      vertex 33.8 -50.4849 2.05547
    endloop
  endfacet
  facet normal -1 0 -0
    outer loop
      vertex 33.8 -50.0775 38.1797
      vertex 33.8 -49.7279 1.50554
      vertex 33.8 -50.4849 2.05547
    endloop
  endfacet
  facet normal -1 0 0
    outer loop
      vertex 33.8 -49.4515 38.875
      vertex 33.8 -49.7279 1.50554
      vertex 33.8 -50.0775 38.1797
    endloop
  endfacet
  facet normal -1 3.73837e-16 -2.76579e-18
    outer loop
      vertex 33.8 -11.4 44
      vertex 33.8 -49.7279 1.50554
      vertex 33.8 -49.4515 38.875
    endloop
  endfacet
  facet normal -1 3.90556e-16 -1.26904e-16
    outer loop
      vertex 33.8 -11.4 44
      vertex 33.8 -49.4515 38.875
      vertex 33.8 -49.1623 39.7648
    endloop
  endfacet
  facet normal -1 3.71939e-16 3.90969e-17
    outer loop
      vertex 33.8 -11.4 44
      vertex 33.8 -49.1623 39.7648
      vertex 33.8 -49.2601 40.6953
    endloop
  endfacet
  facet normal -1 -1.10012e-15 1.69036e-14
    outer loop
      vertex 33.8 -11.4 44
      vertex 33.8 -49.2601 40.6953
      vertex 33.8 -49.7279 41.5055
    endloop
  endfacet
  facet normal -1 0 0
    outer loop
      vertex 33.8 -11.4 44
      vertex 33.8 -50.4849 42.0555
      vertex 33.8 -51.4 42.25
    endloop
  endfacet
  facet normal -1 0 0
    outer loop
      vertex 33.8 -11.4 44
      vertex 33.8 -49.7279 41.5055
      vertex 33.8 -50.4849 42.0555
    endloop
  endfacet
  facet normal -1 0 0
    outer loop
      vertex 33.8 -59.4 44
      vertex 33.8 -11.4 44
      vertex 33.8 -51.4 42.25
    endloop
  endfacet
  facet normal -1 0 0
    outer loop
      vertex 33.8 -59.4 44
      vertex 33.8 -51.4 42.25
      vertex 33.8 -52.3152 42.0555
    endloop
  endfacet
  facet normal -1 0 0
    outer loop
      vertex 33.8 -59.4 44
      vertex 33.8 -52.3152 42.0555
      vertex 33.8 -53.0721 41.5055
    endloop
  endfacet
  facet normal -1 -2.2893e-15 2.40643e-16
    outer loop
      vertex 33.8 -59.4 44
      vertex 33.8 -53.5399 40.6953
      vertex 33.8 -53.6377 39.7648
    endloop
  endfacet
  facet normal -1 5.632e-15 1.42872e-14
    outer loop
      vertex 33.8 -59.4 44
      vertex 33.8 -53.0721 41.5055
      vertex 33.8 -53.5399 40.6953
    endloop
  endfacet
  facet normal 0 1 -0
    outer loop
      vertex 34.6 -11.4 -4
      vertex 33.8 -11.4 44
      vertex 34.6 -11.4 44
    endloop
  endfacet
  facet normal 0 1 0
    outer loop
      vertex 34.6 -11.4 -4
      vertex 33.8 -11.4 -4
      vertex 33.8 -11.4 44
    endloop
  endfacet
  facet normal 0 0 -1
    outer loop
      vertex 34.6 -59.4 -4
      vertex 33.8 -11.4 -4
      vertex 34.6 -11.4 -4
    endloop
  endfacet
  facet normal 0 0 -1
    outer loop
      vertex 34.6 -59.4 -4
      vertex 33.8 -59.4 -4
      vertex 33.8 -11.4 -4
    endloop
  endfacet
  facet normal 0 -1 0
    outer loop
      vertex 34.6 -59.4 44
      vertex 33.8 -59.4 -4
      vertex 34.6 -59.4 -4
    endloop
  endfacet
  facet normal -0 -1 0
    outer loop
      vertex 34.6 -59.4 44
      vertex 33.8 -59.4 44
      vertex 33.8 -59.4 -4
    endloop
  endfacet
  facet normal 0 0 1
    outer loop
      vertex 34.6 -11.4 44
      vertex 33.8 -59.4 44
      vertex 34.6 -59.4 44
    endloop
  endfacet
  facet normal 0 0 1
    outer loop
      vertex 34.6 -11.4 44
      vertex 33.8 -11.4 44
      vertex 33.8 -59.4 44
    endloop
  endfacet
  facet normal 0 0.743143 0.669132
    outer loop
      vertex 34.6 -52.7225 -1.8203
      vertex 33.8 -52.7225 -1.8203
      vertex 34.6 -53.3486 -1.12502
    endloop
  endfacet
  facet normal -0 0.743143 0.669132
    outer loop
      vertex 33.8 -53.3486 -1.12502
      vertex 34.6 -53.3486 -1.12502
      vertex 33.8 -52.7225 -1.8203
    endloop
  endfacet
  facet normal 0 0.40673 0.913548
    outer loop
      vertex 34.6 -51.8678 -2.20084
      vertex 33.8 -51.8678 -2.20084
      vertex 34.6 -52.7225 -1.8203
    endloop
  endfacet
  facet normal -0 0.40673 0.913548
    outer loop
      vertex 33.8 -52.7225 -1.8203
      vertex 34.6 -52.7225 -1.8203
      vertex 33.8 -51.8678 -2.20084
    endloop
  endfacet
  facet normal 0 0 1
    outer loop
      vertex 34.6 -50.9322 -2.20084
      vertex 33.8 -50.9322 -2.20084
      vertex 34.6 -51.8678 -2.20084
    endloop
  endfacet
  facet normal 0 0 1
    outer loop
      vertex 33.8 -51.8678 -2.20084
      vertex 34.6 -51.8678 -2.20084
      vertex 33.8 -50.9322 -2.20084
    endloop
  endfacet
  facet normal 0 -0.40673 0.913548
    outer loop
      vertex 34.6 -50.0775 -1.8203
      vertex 33.8 -50.0775 -1.8203
      vertex 34.6 -50.9322 -2.20084
    endloop
  endfacet
  facet normal 0 -0.40673 0.913548
    outer loop
      vertex 33.8 -50.9322 -2.20084
      vertex 34.6 -50.9322 -2.20084
      vertex 33.8 -50.0775 -1.8203
    endloop
  endfacet
  facet normal 0 -0.743151 0.669124
    outer loop
      vertex 34.6 -49.4515 -1.125
      vertex 33.8 -49.4515 -1.125
      vertex 34.6 -50.0775 -1.8203
    endloop
  endfacet
  facet normal 0 -0.743151 0.669124
    outer loop
      vertex 33.8 -50.0775 -1.8203
      vertex 34.6 -50.0775 -1.8203
      vertex 33.8 -49.4515 -1.125
    endloop
  endfacet
  facet normal 0 -0.951053 0.309026
    outer loop
      vertex 34.6 -49.1623 -0.235199
      vertex 33.8 -49.1623 -0.235199
      vertex 34.6 -49.4515 -1.125
    endloop
  endfacet
  facet normal 0 -0.951053 0.309026
    outer loop
      vertex 33.8 -49.4515 -1.125
      vertex 34.6 -49.4515 -1.125
      vertex 33.8 -49.1623 -0.235199
    endloop
  endfacet
  facet normal -0 -0.994521 -0.10454
    outer loop
      vertex 34.6 -49.2601 0.695282
      vertex 33.8 -49.2601 0.695282
      vertex 34.6 -49.1623 -0.235199
    endloop
  endfacet
  facet normal 0 -0.994521 -0.10454
    outer loop
      vertex 33.8 -49.1623 -0.235199
      vertex 34.6 -49.1623 -0.235199
      vertex 33.8 -49.2601 0.695282
    endloop
  endfacet
  facet normal -0 -0.866032 -0.499989
    outer loop
      vertex 34.6 -49.7279 1.50554
      vertex 33.8 -49.7279 1.50554
      vertex 34.6 -49.2601 0.695282
    endloop
  endfacet
  facet normal 0 -0.866032 -0.499989
    outer loop
      vertex 33.8 -49.2601 0.695282
      vertex 34.6 -49.2601 0.695282
      vertex 33.8 -49.7279 1.50554
    endloop
  endfacet
  facet normal -0 -0.587776 -0.809024
    outer loop
      vertex 34.6 -50.4849 2.05547
      vertex 33.8 -50.4849 2.05547
      vertex 34.6 -49.7279 1.50554
    endloop
  endfacet
  facet normal 0 -0.587776 -0.809024
    outer loop
      vertex 33.8 -49.7279 1.50554
      vertex 34.6 -49.7279 1.50554
      vertex 33.8 -50.4849 2.05547
    endloop
  endfacet
  facet normal -0 -0.207926 -0.978145
    outer loop
      vertex 34.6 -51.4 2.25
      vertex 33.8 -51.4 2.25
      vertex 34.6 -50.4849 2.05547
    endloop
  endfacet
  facet normal 0 -0.207926 -0.978145
    outer loop
      vertex 33.8 -50.4849 2.05547
      vertex 34.6 -50.4849 2.05547
      vertex 33.8 -51.4 2.25
    endloop
  endfacet
  facet normal 0 0.207923 -0.978145
    outer loop
      vertex 34.6 -52.3152 2.05547
      vertex 33.8 -52.3152 2.05547
      vertex 34.6 -51.4 2.25
    endloop
  endfacet
  facet normal 0 0.207923 -0.978145
    outer loop
      vertex 33.8 -51.4 2.25
      vertex 34.6 -51.4 2.25
      vertex 33.8 -52.3152 2.05547
    endloop
  endfacet
  facet normal 0 0.587776 -0.809024
    outer loop
      vertex 34.6 -53.0721 1.50554
      vertex 33.8 -53.0721 1.50554
      vertex 34.6 -52.3152 2.05547
    endloop
  endfacet
  facet normal 0 0.587776 -0.809024
    outer loop
      vertex 33.8 -52.3152 2.05547
      vertex 34.6 -52.3152 2.05547
      vertex 33.8 -53.0721 1.50554
    endloop
  endfacet
  facet normal 0 0.866032 -0.499989
    outer loop
      vertex 34.6 -53.5399 0.695282
      vertex 33.8 -53.5399 0.695282
      vertex 34.6 -53.0721 1.50554
    endloop
  endfacet
  facet normal 0 0.866032 -0.499989
    outer loop
      vertex 33.8 -53.0721 1.50554
      vertex 34.6 -53.0721 1.50554
      vertex 33.8 -53.5399 0.695282
    endloop
  endfacet
  facet normal 0 0.994521 -0.10454
    outer loop
      vertex 34.6 -53.6377 -0.235199
      vertex 33.8 -53.6377 -0.235199
      vertex 34.6 -53.5399 0.695282
    endloop
  endfacet
  facet normal 0 0.994521 -0.10454
    outer loop
      vertex 33.8 -53.5399 0.695282
      vertex 34.6 -53.5399 0.695282
      vertex 33.8 -53.6377 -0.235199
    endloop
  endfacet
  facet normal 0 0.951055 0.309022
    outer loop
      vertex 34.6 -53.3486 -1.12502
      vertex 33.8 -53.3486 -1.12502
      vertex 34.6 -53.6377 -0.235199
    endloop
  endfacet
  facet normal -0 0.951055 0.309022
    outer loop
      vertex 33.8 -53.6377 -0.235199
      vertex 34.6 -53.6377 -0.235199
      vertex 33.8 -53.3486 -1.12502
    endloop
  endfacet
  facet normal 0 0.743151 0.669124
    outer loop
      vertex 34.6 -52.7225 38.1797
      vertex 33.8 -52.7225 38.1797
      vertex 34.6 -53.3486 38.875
    endloop
  endfacet
  facet normal -0 0.743151 0.669124
    outer loop
      vertex 33.8 -53.3486 38.875
      vertex 34.6 -53.3486 38.875
      vertex 33.8 -52.7225 38.1797
    endloop
  endfacet
  facet normal 0 0.40673 0.913548
    outer loop
      vertex 34.6 -51.8678 37.7992
      vertex 33.8 -51.8678 37.7992
      vertex 34.6 -52.7225 38.1797
    endloop
  endfacet
  facet normal -0 0.40673 0.913548
    outer loop
      vertex 33.8 -52.7225 38.1797
      vertex 34.6 -52.7225 38.1797
      vertex 33.8 -51.8678 37.7992
    endloop
  endfacet
  facet normal 0 0 1
    outer loop
      vertex 34.6 -50.9322 37.7992
      vertex 33.8 -50.9322 37.7992
      vertex 34.6 -51.8678 37.7992
    endloop
  endfacet
  facet normal 0 0 1
    outer loop
      vertex 33.8 -51.8678 37.7992
      vertex 34.6 -51.8678 37.7992
      vertex 33.8 -50.9322 37.7992
    endloop
  endfacet
  facet normal 0 -0.40673 0.913548
    outer loop
      vertex 34.6 -50.0775 38.1797
      vertex 33.8 -50.0775 38.1797
      vertex 34.6 -50.9322 37.7992
    endloop
  endfacet
  facet normal 0 -0.40673 0.913548
    outer loop
      vertex 33.8 -50.9322 37.7992
      vertex 34.6 -50.9322 37.7992
      vertex 33.8 -50.0775 38.1797
    endloop
  endfacet
  facet normal 0 -0.743151 0.669124
    outer loop
      vertex 34.6 -49.4515 38.875
      vertex 33.8 -49.4515 38.875
      vertex 34.6 -50.0775 38.1797
    endloop
  endfacet
  facet normal 0 -0.743151 0.669124
    outer loop
      vertex 33.8 -50.0775 38.1797
      vertex 34.6 -50.0775 38.1797
      vertex 33.8 -49.4515 38.875
    endloop
  endfacet
  facet normal 0 -0.951053 0.309026
    outer loop
      vertex 34.6 -49.1623 39.7648
      vertex 33.8 -49.1623 39.7648
      vertex 34.6 -49.4515 38.875
    endloop
  endfacet
  facet normal 0 -0.951053 0.309026
    outer loop
      vertex 33.8 -49.4515 38.875
      vertex 34.6 -49.4515 38.875
      vertex 33.8 -49.1623 39.7648
    endloop
  endfacet
  facet normal -0 -0.994521 -0.10454
    outer loop
      vertex 34.6 -49.2601 40.6953
      vertex 33.8 -49.2601 40.6953
      vertex 34.6 -49.1623 39.7648
    endloop
  endfacet
  facet normal 0 -0.994521 -0.10454
    outer loop
      vertex 33.8 -49.1623 39.7648
      vertex 34.6 -49.1623 39.7648
      vertex 33.8 -49.2601 40.6953
    endloop
  endfacet
  facet normal -0 -0.866032 -0.499989
    outer loop
      vertex 34.6 -49.7279 41.5055
      vertex 33.8 -49.7279 41.5055
      vertex 34.6 -49.2601 40.6953
    endloop
  endfacet
  facet normal 0 -0.866032 -0.499989
    outer loop
      vertex 33.8 -49.2601 40.6953
      vertex 34.6 -49.2601 40.6953
      vertex 33.8 -49.7279 41.5055
    endloop
  endfacet
  facet normal -0 -0.587776 -0.809024
    outer loop
      vertex 34.6 -50.4849 42.0555
      vertex 33.8 -50.4849 42.0555
      vertex 34.6 -49.7279 41.5055
    endloop
  endfacet
  facet normal 0 -0.587776 -0.809024
    outer loop
      vertex 33.8 -49.7279 41.5055
      vertex 34.6 -49.7279 41.5055
      vertex 33.8 -50.4849 42.0555
    endloop
  endfacet
  facet normal -0 -0.207926 -0.978145
    outer loop
      vertex 34.6 -51.4 42.25
      vertex 33.8 -51.4 42.25
      vertex 34.6 -50.4849 42.0555
    endloop
  endfacet
  facet normal 0 -0.207926 -0.978145
    outer loop
      vertex 33.8 -50.4849 42.0555
      vertex 34.6 -50.4849 42.0555
      vertex 33.8 -51.4 42.25
    endloop
  endfacet
  facet normal 0 0.207923 -0.978145
    outer loop
      vertex 34.6 -52.3152 42.0555
      vertex 33.8 -52.3152 42.0555
      vertex 34.6 -51.4 42.25
    endloop
  endfacet
  facet normal 0 0.207923 -0.978145
    outer loop
      vertex 33.8 -51.4 42.25
      vertex 34.6 -51.4 42.25
      vertex 33.8 -52.3152 42.0555
    endloop
  endfacet
  facet normal 0 0.587776 -0.809024
    outer loop
      vertex 34.6 -53.0721 41.5055
      vertex 33.8 -53.0721 41.5055
      vertex 34.6 -52.3152 42.0555
    endloop
  endfacet
  facet normal 0 0.587776 -0.809024
    outer loop
      vertex 33.8 -52.3152 42.0555
      vertex 34.6 -52.3152 42.0555
      vertex 33.8 -53.0721 41.5055
    endloop
  endfacet
  facet normal 0 0.866032 -0.499989
    outer loop
      vertex 34.6 -53.5399 40.6953
      vertex 33.8 -53.5399 40.6953
      vertex 34.6 -53.0721 41.5055
    endloop
  endfacet
  facet normal 0 0.866032 -0.499989
    outer loop
      vertex 33.8 -53.0721 41.5055
      vertex 34.6 -53.0721 41.5055
      vertex 33.8 -53.5399 40.6953
    endloop
  endfacet
  facet normal 0 0.994521 -0.10454
    outer loop
      vertex 34.6 -53.6377 39.7648
      vertex 33.8 -53.6377 39.7648
      vertex 34.6 -53.5399 40.6953
    endloop
  endfacet
  facet normal 0 0.994521 -0.10454
    outer loop
      vertex 33.8 -53.5399 40.6953
      vertex 34.6 -53.5399 40.6953
      vertex 33.8 -53.6377 39.7648
    endloop
  endfacet
  facet normal 0 0.951053 0.309026
    outer loop
      vertex 34.6 -53.3486 38.875
      vertex 33.8 -53.3486 38.875
      vertex 34.6 -53.6377 39.7648
    endloop
  endfacet
  facet normal -0 0.951053 0.309026
    outer loop
      vertex 33.8 -53.6377 39.7648
      vertex 34.6 -53.6377 39.7648
      vertex 33.8 -53.3486 38.875
    endloop
  endfacet
endsolid OpenSCAD_Model
