solid OpenSCAD_Model
  facet normal -0 0.0523339 0.99863
    outer loop
      vertex 27.85 -40.2796 -45.8284
      vertex 37.85 -40.5409 -45.8148
      vertex 37.85 -40.2796 -45.8284
    endloop
  endfacet
  facet normal 0 0.0523339 0.99863
    outer loop
      vertex 37.85 -40.5409 -45.8148
      vertex 27.85 -40.2796 -45.8284
      vertex 27.85 -40.5409 -45.8148
    endloop
  endfacet
  facet normal 0 0.0523339 -0.99863
    outer loop
      vertex 27.85 -40.5409 -50.8148
      vertex 37.85 -40.2796 -50.8011
      vertex 37.85 -40.5409 -50.8148
    endloop
  endfacet
  facet normal 0 0.0523339 -0.99863
    outer loop
      vertex 37.85 -40.2796 -50.8011
      vertex 27.85 -40.5409 -50.8148
      vertex 27.85 -40.2796 -50.8011
    endloop
  endfacet
  facet normal 0 0.99863 0.0523339
    outer loop
      vertex 37.85 -38.0409 -48.3148
      vertex 33.85 -38.0546 -48.0534
      vertex 37.85 -38.0546 -48.0534
    endloop
  endfacet
  facet normal 0 0.99863 0.0523339
    outer loop
      vertex 33.85 -38.0546 -48.0534
      vertex 37.85 -38.0409 -48.3148
      vertex 33.85 -38.0409 -48.3148
    endloop
  endfacet
  facet normal 0 -0.99863 -0.0523339
    outer loop
      vertex 33.85 -43.0272 -48.5761
      vertex 37.85 -43.0409 -48.3148
      vertex 33.85 -43.0409 -48.3148
    endloop
  endfacet
  facet normal 0 -0.99863 -0.0523339
    outer loop
      vertex 37.85 -43.0409 -48.3148
      vertex 33.85 -43.0272 -48.5761
      vertex 37.85 -43.0272 -48.5761
    endloop
  endfacet
  facet normal 0 0.707107 0.707107
    outer loop
      vertex 37.85 -38.683 -46.6419
      vertex 33.85 -38.8681 -46.4569
      vertex 37.85 -38.8681 -46.4569
    endloop
  endfacet
  facet normal 0 0.707107 0.707107
    outer loop
      vertex 33.85 -38.8681 -46.4569
      vertex 37.85 -38.683 -46.6419
      vertex 33.85 -38.683 -46.6419
    endloop
  endfacet
  facet normal 0 0.777143 -0.629324
    outer loop
      vertex 37.85 -38.683 -49.9876
      vertex 33.85 -38.5183 -49.7842
      vertex 37.85 -38.5183 -49.7842
    endloop
  endfacet
  facet normal 0 0.777143 -0.629324
    outer loop
      vertex 33.85 -38.5183 -49.7842
      vertex 37.85 -38.683 -49.9876
      vertex 33.85 -38.683 -49.9876
    endloop
  endfacet
  facet normal 0 0.933582 -0.358363
    outer loop
      vertex 37.85 -38.257 -49.3316
      vertex 33.85 -38.1632 -49.0873
      vertex 37.85 -38.1632 -49.0873
    endloop
  endfacet
  facet normal 0 0.933582 -0.358363
    outer loop
      vertex 33.85 -38.1632 -49.0873
      vertex 37.85 -38.257 -49.3316
      vertex 33.85 -38.257 -49.3316
    endloop
  endfacet
  facet normal 0 -0.358363 -0.933582
    outer loop
      vertex 27.85 -41.5577 -50.5986
      vertex 37.85 -41.3134 -50.6924
      vertex 37.85 -41.5577 -50.5986
    endloop
  endfacet
  facet normal -0 -0.358363 -0.933582
    outer loop
      vertex 37.85 -41.3134 -50.6924
      vertex 27.85 -41.5577 -50.5986
      vertex 27.85 -41.3134 -50.6924
    endloop
  endfacet
  facet normal -0 0.358363 0.933582
    outer loop
      vertex 27.85 -39.524 -46.0309
      vertex 37.85 -39.7683 -45.9371
      vertex 37.85 -39.524 -46.0309
    endloop
  endfacet
  facet normal 0 0.358363 0.933582
    outer loop
      vertex 37.85 -39.7683 -45.9371
      vertex 27.85 -39.524 -46.0309
      vertex 27.85 -39.7683 -45.9371
    endloop
  endfacet
  facet normal -0 0.156434 0.987688
    outer loop
      vertex 27.85 -40.0211 -45.8694
      vertex 37.85 -40.2796 -45.8284
      vertex 37.85 -40.0211 -45.8694
    endloop
  endfacet
  facet normal 0 0.156434 0.987688
    outer loop
      vertex 37.85 -40.2796 -45.8284
      vertex 27.85 -40.0211 -45.8694
      vertex 27.85 -40.2796 -45.8284
    endloop
  endfacet
  facet normal 0 0.891005 0.453994
    outer loop
      vertex 37.85 -38.257 -47.2979
      vertex 33.85 -38.3758 -47.0648
      vertex 37.85 -38.3758 -47.0648
    endloop
  endfacet
  facet normal 0 0.891005 0.453994
    outer loop
      vertex 33.85 -38.3758 -47.0648
      vertex 37.85 -38.257 -47.2979
      vertex 33.85 -38.257 -47.2979
    endloop
  endfacet
  facet normal 0 0.838671 0.544638
    outer loop
      vertex 37.85 -38.3758 -47.0648
      vertex 33.85 -38.5183 -46.8453
      vertex 37.85 -38.5183 -46.8453
    endloop
  endfacet
  facet normal 0 0.838671 0.544638
    outer loop
      vertex 33.85 -38.5183 -46.8453
      vertex 37.85 -38.3758 -47.0648
      vertex 33.85 -38.3758 -47.0648
    endloop
  endfacet
  facet normal 0 0.453994 -0.891005
    outer loop
      vertex 27.85 -39.524 -50.5986
      vertex 37.85 -39.2909 -50.4798
      vertex 37.85 -39.524 -50.5986
    endloop
  endfacet
  facet normal 0 0.453994 -0.891005
    outer loop
      vertex 37.85 -39.2909 -50.4798
      vertex 27.85 -39.524 -50.5986
      vertex 27.85 -39.2909 -50.4798
    endloop
  endfacet
  facet normal 0 0.987688 -0.156434
    outer loop
      vertex 37.85 -38.0955 -48.8345
      vertex 33.85 -38.0546 -48.5761
      vertex 37.85 -38.0546 -48.5761
    endloop
  endfacet
  facet normal 0 0.987688 -0.156434
    outer loop
      vertex 33.85 -38.0546 -48.5761
      vertex 37.85 -38.0955 -48.8345
      vertex 33.85 -38.0955 -48.8345
    endloop
  endfacet
  facet normal 0 -0.358363 0.933582
    outer loop
      vertex 27.85 -41.3134 -45.9371
      vertex 37.85 -41.5577 -46.0309
      vertex 37.85 -41.3134 -45.9371
    endloop
  endfacet
  facet normal 0 -0.358363 0.933582
    outer loop
      vertex 37.85 -41.5577 -46.0309
      vertex 27.85 -41.3134 -45.9371
      vertex 27.85 -41.5577 -46.0309
    endloop
  endfacet
  facet normal 1 0 0
    outer loop
      vertex 37.85 -38.0546 -48.0534
      vertex 37.85 -38.0546 -48.5761
      vertex 37.85 -38.0409 -48.3148
    endloop
  endfacet
  facet normal 1 0 0
    outer loop
      vertex 37.85 -38.0955 -47.795
      vertex 37.85 -38.0546 -48.5761
      vertex 37.85 -38.0546 -48.0534
    endloop
  endfacet
  facet normal 1 0 0
    outer loop
      vertex 37.85 -38.0955 -47.795
      vertex 37.85 -38.0955 -48.8345
      vertex 37.85 -38.0546 -48.5761
    endloop
  endfacet
  facet normal 1 0 0
    outer loop
      vertex 37.85 -38.1632 -47.5422
      vertex 37.85 -38.0955 -48.8345
      vertex 37.85 -38.0955 -47.795
    endloop
  endfacet
  facet normal 1 0 0
    outer loop
      vertex 37.85 -38.1632 -47.5422
      vertex 37.85 -38.1632 -49.0873
      vertex 37.85 -38.0955 -48.8345
    endloop
  endfacet
  facet normal 1 0 0
    outer loop
      vertex 37.85 -38.257 -47.2979
      vertex 37.85 -38.1632 -49.0873
      vertex 37.85 -38.1632 -47.5422
    endloop
  endfacet
  facet normal 1 0 0
    outer loop
      vertex 37.85 -38.257 -47.2979
      vertex 37.85 -38.257 -49.3316
      vertex 37.85 -38.1632 -49.0873
    endloop
  endfacet
  facet normal 1 0 0
    outer loop
      vertex 37.85 -38.3758 -47.0648
      vertex 37.85 -38.257 -49.3316
      vertex 37.85 -38.257 -47.2979
    endloop
  endfacet
  facet normal 1 0 0
    outer loop
      vertex 37.85 -38.3758 -47.0648
      vertex 37.85 -38.3758 -49.5648
      vertex 37.85 -38.257 -49.3316
    endloop
  endfacet
  facet normal 1 0 0
    outer loop
      vertex 37.85 -38.5183 -46.8453
      vertex 37.85 -38.3758 -49.5648
      vertex 37.85 -38.3758 -47.0648
    endloop
  endfacet
  facet normal 1 0 0
    outer loop
      vertex 37.85 -38.5183 -46.8453
      vertex 37.85 -38.5183 -49.7842
      vertex 37.85 -38.3758 -49.5648
    endloop
  endfacet
  facet normal 1 0 0
    outer loop
      vertex 37.85 -38.683 -46.6419
      vertex 37.85 -38.5183 -49.7842
      vertex 37.85 -38.5183 -46.8453
    endloop
  endfacet
  facet normal 1 0 0
    outer loop
      vertex 37.85 -38.683 -46.6419
      vertex 37.85 -38.683 -49.9876
      vertex 37.85 -38.5183 -49.7842
    endloop
  endfacet
  facet normal 1 0 0
    outer loop
      vertex 37.85 -38.8681 -46.4569
      vertex 37.85 -38.683 -49.9876
      vertex 37.85 -38.683 -46.6419
    endloop
  endfacet
  facet normal 1 0 0
    outer loop
      vertex 37.85 -38.8681 -46.4569
      vertex 37.85 -38.8681 -50.1726
      vertex 37.85 -38.683 -49.9876
    endloop
  endfacet
  facet normal 1 0 0
    outer loop
      vertex 37.85 -39.0714 -46.2922
      vertex 37.85 -38.8681 -50.1726
      vertex 37.85 -38.8681 -46.4569
    endloop
  endfacet
  facet normal 1 0 0
    outer loop
      vertex 37.85 -39.0714 -46.2922
      vertex 37.85 -39.0714 -50.3373
      vertex 37.85 -38.8681 -50.1726
    endloop
  endfacet
  facet normal 1 0 0
    outer loop
      vertex 37.85 -39.2909 -46.1497
      vertex 37.85 -39.0714 -50.3373
      vertex 37.85 -39.0714 -46.2922
    endloop
  endfacet
  facet normal 1 0 0
    outer loop
      vertex 37.85 -39.2909 -46.1497
      vertex 37.85 -39.2909 -50.4798
      vertex 37.85 -39.0714 -50.3373
    endloop
  endfacet
  facet normal 1 0 0
    outer loop
      vertex 37.85 -39.524 -46.0309
      vertex 37.85 -39.2909 -50.4798
      vertex 37.85 -39.2909 -46.1497
    endloop
  endfacet
  facet normal 1 0 0
    outer loop
      vertex 37.85 -39.524 -46.0309
      vertex 37.85 -39.524 -50.5986
      vertex 37.85 -39.2909 -50.4798
    endloop
  endfacet
  facet normal 1 0 0
    outer loop
      vertex 37.85 -39.7683 -45.9371
      vertex 37.85 -39.524 -50.5986
      vertex 37.85 -39.524 -46.0309
    endloop
  endfacet
  facet normal 1 0 0
    outer loop
      vertex 37.85 -39.7683 -45.9371
      vertex 37.85 -39.7683 -50.6924
      vertex 37.85 -39.524 -50.5986
    endloop
  endfacet
  facet normal 1 0 0
    outer loop
      vertex 37.85 -40.0211 -45.8694
      vertex 37.85 -39.7683 -50.6924
      vertex 37.85 -39.7683 -45.9371
    endloop
  endfacet
  facet normal 1 0 0
    outer loop
      vertex 37.85 -40.0211 -45.8694
      vertex 37.85 -40.0211 -50.7601
      vertex 37.85 -39.7683 -50.6924
    endloop
  endfacet
  facet normal 1 0 0
    outer loop
      vertex 37.85 -40.2796 -45.8284
      vertex 37.85 -40.0211 -50.7601
      vertex 37.85 -40.0211 -45.8694
    endloop
  endfacet
  facet normal 1 0 0
    outer loop
      vertex 37.85 -40.2796 -45.8284
      vertex 37.85 -40.2796 -50.8011
      vertex 37.85 -40.0211 -50.7601
    endloop
  endfacet
  facet normal 1 0 0
    outer loop
      vertex 37.85 -40.5409 -45.8148
      vertex 37.85 -40.2796 -50.8011
      vertex 37.85 -40.2796 -45.8284
    endloop
  endfacet
  facet normal 1 0 0
    outer loop
      vertex 37.85 -40.5409 -45.8148
      vertex 37.85 -40.5409 -50.8148
      vertex 37.85 -40.2796 -50.8011
    endloop
  endfacet
  facet normal 1 -0 0
    outer loop
      vertex 37.85 -40.8022 -45.8284
      vertex 37.85 -40.5409 -50.8148
      vertex 37.85 -40.5409 -45.8148
    endloop
  endfacet
  facet normal 1 0 0
    outer loop
      vertex 37.85 -40.8022 -45.8284
      vertex 37.85 -40.8022 -50.8011
      vertex 37.85 -40.5409 -50.8148
    endloop
  endfacet
  facet normal 1 -0 0
    outer loop
      vertex 37.85 -41.0607 -45.8694
      vertex 37.85 -40.8022 -50.8011
      vertex 37.85 -40.8022 -45.8284
    endloop
  endfacet
  facet normal 1 0 0
    outer loop
      vertex 37.85 -41.0607 -45.8694
      vertex 37.85 -41.0607 -50.7601
      vertex 37.85 -40.8022 -50.8011
    endloop
  endfacet
  facet normal 1 -0 0
    outer loop
      vertex 37.85 -41.3134 -45.9371
      vertex 37.85 -41.0607 -50.7601
      vertex 37.85 -41.0607 -45.8694
    endloop
  endfacet
  facet normal 1 0 0
    outer loop
      vertex 37.85 -41.3134 -45.9371
      vertex 37.85 -41.3134 -50.6924
      vertex 37.85 -41.0607 -50.7601
    endloop
  endfacet
  facet normal 1 -0 0
    outer loop
      vertex 37.85 -41.5577 -46.0309
      vertex 37.85 -41.3134 -50.6924
      vertex 37.85 -41.3134 -45.9371
    endloop
  endfacet
  facet normal 1 0 0
    outer loop
      vertex 37.85 -41.5577 -46.0309
      vertex 37.85 -41.5577 -50.5986
      vertex 37.85 -41.3134 -50.6924
    endloop
  endfacet
  facet normal 1 -0 0
    outer loop
      vertex 37.85 -41.7909 -46.1497
      vertex 37.85 -41.5577 -50.5986
      vertex 37.85 -41.5577 -46.0309
    endloop
  endfacet
  facet normal 1 0 0
    outer loop
      vertex 37.85 -41.7909 -46.1497
      vertex 37.85 -41.7909 -50.4798
      vertex 37.85 -41.5577 -50.5986
    endloop
  endfacet
  facet normal 1 -0 0
    outer loop
      vertex 37.85 -42.0104 -46.2922
      vertex 37.85 -41.7909 -50.4798
      vertex 37.85 -41.7909 -46.1497
    endloop
  endfacet
  facet normal 1 0 0
    outer loop
      vertex 37.85 -42.0104 -46.2922
      vertex 37.85 -42.0104 -50.3373
      vertex 37.85 -41.7909 -50.4798
    endloop
  endfacet
  facet normal 1 -0 0
    outer loop
      vertex 37.85 -42.2137 -46.4569
      vertex 37.85 -42.0104 -50.3373
      vertex 37.85 -42.0104 -46.2922
    endloop
  endfacet
  facet normal 1 0 0
    outer loop
      vertex 37.85 -42.2137 -46.4569
      vertex 37.85 -42.2137 -50.1726
      vertex 37.85 -42.0104 -50.3373
    endloop
  endfacet
  facet normal 1 -0 0
    outer loop
      vertex 37.85 -42.3988 -46.6419
      vertex 37.85 -42.2137 -50.1726
      vertex 37.85 -42.2137 -46.4569
    endloop
  endfacet
  facet normal 1 0 0
    outer loop
      vertex 37.85 -42.3988 -46.6419
      vertex 37.85 -42.3988 -49.9876
      vertex 37.85 -42.2137 -50.1726
    endloop
  endfacet
  facet normal 1 -0 0
    outer loop
      vertex 37.85 -42.5634 -46.8453
      vertex 37.85 -42.3988 -49.9876
      vertex 37.85 -42.3988 -46.6419
    endloop
  endfacet
  facet normal 1 0 0
    outer loop
      vertex 37.85 -42.5634 -46.8453
      vertex 37.85 -42.5634 -49.7842
      vertex 37.85 -42.3988 -49.9876
    endloop
  endfacet
  facet normal 1 -0 0
    outer loop
      vertex 37.85 -42.706 -47.0648
      vertex 37.85 -42.5634 -49.7842
      vertex 37.85 -42.5634 -46.8453
    endloop
  endfacet
  facet normal 1 0 0
    outer loop
      vertex 37.85 -42.706 -47.0648
      vertex 37.85 -42.706 -49.5648
      vertex 37.85 -42.5634 -49.7842
    endloop
  endfacet
  facet normal 1 -0 0
    outer loop
      vertex 37.85 -42.8248 -47.2979
      vertex 37.85 -42.706 -49.5648
      vertex 37.85 -42.706 -47.0648
    endloop
  endfacet
  facet normal 1 0 0
    outer loop
      vertex 37.85 -42.8248 -47.2979
      vertex 37.85 -42.8248 -49.3316
      vertex 37.85 -42.706 -49.5648
    endloop
  endfacet
  facet normal 1 -0 0
    outer loop
      vertex 37.85 -42.9185 -47.5422
      vertex 37.85 -42.8248 -49.3316
      vertex 37.85 -42.8248 -47.2979
    endloop
  endfacet
  facet normal 1 0 0
    outer loop
      vertex 37.85 -42.9185 -47.5422
      vertex 37.85 -42.9185 -49.0873
      vertex 37.85 -42.8248 -49.3316
    endloop
  endfacet
  facet normal 1 -0 0
    outer loop
      vertex 37.85 -42.9863 -47.795
      vertex 37.85 -42.9185 -49.0873
      vertex 37.85 -42.9185 -47.5422
    endloop
  endfacet
  facet normal 1 0 0
    outer loop
      vertex 37.85 -42.9863 -47.795
      vertex 37.85 -42.9863 -48.8345
      vertex 37.85 -42.9185 -49.0873
    endloop
  endfacet
  facet normal 1 -0 0
    outer loop
      vertex 37.85 -43.0272 -48.0534
      vertex 37.85 -42.9863 -48.8345
      vertex 37.85 -42.9863 -47.795
    endloop
  endfacet
  facet normal 1 0 0
    outer loop
      vertex 37.85 -43.0272 -48.0534
      vertex 37.85 -43.0272 -48.5761
      vertex 37.85 -42.9863 -48.8345
    endloop
  endfacet
  facet normal 1 0 -0
    outer loop
      vertex 37.85 -43.0272 -48.5761
      vertex 37.85 -43.0272 -48.0534
      vertex 37.85 -43.0409 -48.3148
    endloop
  endfacet
  facet normal -0 0.258828 0.965923
    outer loop
      vertex 27.85 -39.7683 -45.9371
      vertex 37.85 -40.0211 -45.8694
      vertex 37.85 -39.7683 -45.9371
    endloop
  endfacet
  facet normal 0 0.258828 0.965923
    outer loop
      vertex 37.85 -40.0211 -45.8694
      vertex 27.85 -39.7683 -45.9371
      vertex 27.85 -40.0211 -45.8694
    endloop
  endfacet
  facet normal -0 0.544638 0.838671
    outer loop
      vertex 27.85 -39.0714 -46.2922
      vertex 37.85 -39.2909 -46.1497
      vertex 37.85 -39.0714 -46.2922
    endloop
  endfacet
  facet normal 0 0.544638 0.838671
    outer loop
      vertex 37.85 -39.2909 -46.1497
      vertex 27.85 -39.0714 -46.2922
      vertex 27.85 -39.2909 -46.1497
    endloop
  endfacet
  facet normal -0 0.629324 0.777143
    outer loop
      vertex 33.85 -38.8681 -46.4569
      vertex 37.85 -39.0714 -46.2922
      vertex 37.85 -38.8681 -46.4569
    endloop
  endfacet
  facet normal -5.37885e-07 0.629318 0.777148
    outer loop
      vertex 33.85 -39.0409 -46.3169
      vertex 37.85 -39.0714 -46.2922
      vertex 33.85 -38.8681 -46.4569
    endloop
  endfacet
  facet normal 0 0.62936 0.777114
    outer loop
      vertex 27.85 -39.0714 -46.2922
      vertex 33.85 -39.0409 -46.3169
      vertex 27.85 -39.0409 -46.3169
    endloop
  endfacet
  facet normal 0 0.62936 0.777114
    outer loop
      vertex 33.85 -39.0409 -46.3169
      vertex 27.85 -39.0714 -46.2922
      vertex 37.85 -39.0714 -46.2922
    endloop
  endfacet
  facet normal -0 0.453994 0.891005
    outer loop
      vertex 27.85 -39.2909 -46.1497
      vertex 37.85 -39.524 -46.0309
      vertex 37.85 -39.2909 -46.1497
    endloop
  endfacet
  facet normal 0 0.453994 0.891005
    outer loop
      vertex 37.85 -39.524 -46.0309
      vertex 27.85 -39.2909 -46.1497
      vertex 27.85 -39.524 -46.0309
    endloop
  endfacet
  facet normal 0 0.965923 0.258828
    outer loop
      vertex 37.85 -38.0955 -47.795
      vertex 33.85 -38.1632 -47.5422
      vertex 37.85 -38.1632 -47.5422
    endloop
  endfacet
  facet normal 0 0.965923 0.258828
    outer loop
      vertex 33.85 -38.1632 -47.5422
      vertex 37.85 -38.0955 -47.795
      vertex 33.85 -38.0955 -47.795
    endloop
  endfacet
  facet normal 0 0.933582 0.358363
    outer loop
      vertex 37.85 -38.1632 -47.5422
      vertex 33.85 -38.257 -47.2979
      vertex 37.85 -38.257 -47.2979
    endloop
  endfacet
  facet normal 0 0.933582 0.358363
    outer loop
      vertex 33.85 -38.257 -47.2979
      vertex 37.85 -38.1632 -47.5422
      vertex 33.85 -38.1632 -47.5422
    endloop
  endfacet
  facet normal 0 0.987688 0.156434
    outer loop
      vertex 37.85 -38.0546 -48.0534
      vertex 33.85 -38.0955 -47.795
      vertex 37.85 -38.0955 -47.795
    endloop
  endfacet
  facet normal 0 0.987688 0.156434
    outer loop
      vertex 33.85 -38.0955 -47.795
      vertex 37.85 -38.0546 -48.0534
      vertex 33.85 -38.0546 -48.0534
    endloop
  endfacet
  facet normal 0 0.777143 0.629324
    outer loop
      vertex 37.85 -38.5183 -46.8453
      vertex 33.85 -38.683 -46.6419
      vertex 37.85 -38.683 -46.6419
    endloop
  endfacet
  facet normal 0 0.777143 0.629324
    outer loop
      vertex 33.85 -38.683 -46.6419
      vertex 37.85 -38.5183 -46.8453
      vertex 33.85 -38.5183 -46.8453
    endloop
  endfacet
  facet normal 0 0.258828 -0.965923
    outer loop
      vertex 27.85 -40.0211 -50.7601
      vertex 37.85 -39.7683 -50.6924
      vertex 37.85 -40.0211 -50.7601
    endloop
  endfacet
  facet normal 0 0.258828 -0.965923
    outer loop
      vertex 37.85 -39.7683 -50.6924
      vertex 27.85 -40.0211 -50.7601
      vertex 27.85 -39.7683 -50.6924
    endloop
  endfacet
  facet normal 2.84028e-07 0.629324 -0.777143
    outer loop
      vertex 37.85 -39.0714 -50.3373
      vertex 33.85 -39.0409 -50.3126
      vertex 37.85 -38.8681 -50.1726
    endloop
  endfacet
  facet normal 0 0.629302 -0.777161
    outer loop
      vertex 27.85 -39.0714 -50.3373
      vertex 33.85 -39.0409 -50.3126
      vertex 37.85 -39.0714 -50.3373
    endloop
  endfacet
  facet normal 0 0.629302 -0.777161
    outer loop
      vertex 33.85 -39.0409 -50.3126
      vertex 27.85 -39.0714 -50.3373
      vertex 27.85 -39.0409 -50.3126
    endloop
  endfacet
  facet normal 0 0.629328 -0.77714
    outer loop
      vertex 37.85 -38.8681 -50.1726
      vertex 33.85 -39.0409 -50.3126
      vertex 33.85 -38.8681 -50.1726
    endloop
  endfacet
  facet normal 0 0.707107 -0.707107
    outer loop
      vertex 37.85 -38.8681 -50.1726
      vertex 33.85 -38.683 -49.9876
      vertex 37.85 -38.683 -49.9876
    endloop
  endfacet
  facet normal 0 0.707107 -0.707107
    outer loop
      vertex 33.85 -38.683 -49.9876
      vertex 37.85 -38.8681 -50.1726
      vertex 33.85 -38.8681 -50.1726
    endloop
  endfacet
  facet normal 0 0.544638 -0.838671
    outer loop
      vertex 27.85 -39.2909 -50.4798
      vertex 37.85 -39.0714 -50.3373
      vertex 37.85 -39.2909 -50.4798
    endloop
  endfacet
  facet normal 0 0.544638 -0.838671
    outer loop
      vertex 37.85 -39.0714 -50.3373
      vertex 27.85 -39.2909 -50.4798
      vertex 27.85 -39.0714 -50.3373
    endloop
  endfacet
  facet normal 0 0.358363 -0.933582
    outer loop
      vertex 27.85 -39.7683 -50.6924
      vertex 37.85 -39.524 -50.5986
      vertex 37.85 -39.7683 -50.6924
    endloop
  endfacet
  facet normal 0 0.358363 -0.933582
    outer loop
      vertex 37.85 -39.524 -50.5986
      vertex 27.85 -39.7683 -50.6924
      vertex 27.85 -39.524 -50.5986
    endloop
  endfacet
  facet normal 0 0.156434 -0.987688
    outer loop
      vertex 27.85 -40.2796 -50.8011
      vertex 37.85 -40.0211 -50.7601
      vertex 37.85 -40.2796 -50.8011
    endloop
  endfacet
  facet normal 0 0.156434 -0.987688
    outer loop
      vertex 37.85 -40.0211 -50.7601
      vertex 27.85 -40.2796 -50.8011
      vertex 27.85 -40.0211 -50.7601
    endloop
  endfacet
  facet normal -1 0 0
    outer loop
      vertex 27.85 -39.2909 -50.4798
      vertex 27.85 -39.0409 -50.3126
      vertex 27.85 -39.0714 -50.3373
    endloop
  endfacet
  facet normal -1 -0 0
    outer loop
      vertex 27.85 -39.0409 -50.3126
      vertex 27.85 -39.2909 -50.4798
      vertex 27.85 -39.0409 -46.3169
    endloop
  endfacet
  facet normal -1 0 0
    outer loop
      vertex 27.85 -39.2909 -46.1497
      vertex 27.85 -39.0409 -46.3169
      vertex 27.85 -39.2909 -50.4798
    endloop
  endfacet
  facet normal -1 0 0
    outer loop
      vertex 27.85 -39.0409 -46.3169
      vertex 27.85 -39.2909 -46.1497
      vertex 27.85 -39.0714 -46.2922
    endloop
  endfacet
  facet normal -1 0 0
    outer loop
      vertex 27.85 -39.524 -50.5986
      vertex 27.85 -39.2909 -46.1497
      vertex 27.85 -39.2909 -50.4798
    endloop
  endfacet
  facet normal -1 0 0
    outer loop
      vertex 27.85 -39.524 -50.5986
      vertex 27.85 -39.524 -46.0309
      vertex 27.85 -39.2909 -46.1497
    endloop
  endfacet
  facet normal -1 0 0
    outer loop
      vertex 27.85 -39.7683 -50.6924
      vertex 27.85 -39.524 -46.0309
      vertex 27.85 -39.524 -50.5986
    endloop
  endfacet
  facet normal -1 0 0
    outer loop
      vertex 27.85 -39.7683 -50.6924
      vertex 27.85 -39.7683 -45.9371
      vertex 27.85 -39.524 -46.0309
    endloop
  endfacet
  facet normal -1 0 0
    outer loop
      vertex 27.85 -40.0211 -50.7601
      vertex 27.85 -39.7683 -45.9371
      vertex 27.85 -39.7683 -50.6924
    endloop
  endfacet
  facet normal -1 0 0
    outer loop
      vertex 27.85 -40.0211 -50.7601
      vertex 27.85 -40.0211 -45.8694
      vertex 27.85 -39.7683 -45.9371
    endloop
  endfacet
  facet normal -1 0 0
    outer loop
      vertex 27.85 -40.2796 -50.8011
      vertex 27.85 -40.0211 -45.8694
      vertex 27.85 -40.0211 -50.7601
    endloop
  endfacet
  facet normal -1 0 0
    outer loop
      vertex 27.85 -40.2796 -50.8011
      vertex 27.85 -40.2796 -45.8284
      vertex 27.85 -40.0211 -45.8694
    endloop
  endfacet
  facet normal -1 0 0
    outer loop
      vertex 27.85 -40.5409 -50.8148
      vertex 27.85 -40.2796 -45.8284
      vertex 27.85 -40.2796 -50.8011
    endloop
  endfacet
  facet normal -1 0 0
    outer loop
      vertex 27.85 -40.5409 -50.8148
      vertex 27.85 -40.5409 -45.8148
      vertex 27.85 -40.2796 -45.8284
    endloop
  endfacet
  facet normal -1 0 0
    outer loop
      vertex 27.85 -40.8022 -50.8011
      vertex 27.85 -40.5409 -45.8148
      vertex 27.85 -40.5409 -50.8148
    endloop
  endfacet
  facet normal -1 0 0
    outer loop
      vertex 27.85 -40.8022 -50.8011
      vertex 27.85 -40.8022 -45.8284
      vertex 27.85 -40.5409 -45.8148
    endloop
  endfacet
  facet normal -1 0 0
    outer loop
      vertex 27.85 -41.0607 -50.7601
      vertex 27.85 -40.8022 -45.8284
      vertex 27.85 -40.8022 -50.8011
    endloop
  endfacet
  facet normal -1 0 0
    outer loop
      vertex 27.85 -41.0607 -50.7601
      vertex 27.85 -41.0607 -45.8694
      vertex 27.85 -40.8022 -45.8284
    endloop
  endfacet
  facet normal -1 0 0
    outer loop
      vertex 27.85 -41.3134 -50.6924
      vertex 27.85 -41.0607 -45.8694
      vertex 27.85 -41.0607 -50.7601
    endloop
  endfacet
  facet normal -1 0 0
    outer loop
      vertex 27.85 -41.3134 -50.6924
      vertex 27.85 -41.3134 -45.9371
      vertex 27.85 -41.0607 -45.8694
    endloop
  endfacet
  facet normal -1 0 0
    outer loop
      vertex 27.85 -41.5577 -50.5986
      vertex 27.85 -41.3134 -45.9371
      vertex 27.85 -41.3134 -50.6924
    endloop
  endfacet
  facet normal -1 0 0
    outer loop
      vertex 27.85 -41.5577 -50.5986
      vertex 27.85 -41.5577 -46.0309
      vertex 27.85 -41.3134 -45.9371
    endloop
  endfacet
  facet normal -1 0 0
    outer loop
      vertex 27.85 -41.7909 -50.4798
      vertex 27.85 -41.5577 -46.0309
      vertex 27.85 -41.5577 -50.5986
    endloop
  endfacet
  facet normal -1 0 0
    outer loop
      vertex 27.85 -41.7909 -50.4798
      vertex 27.85 -41.7909 -46.1497
      vertex 27.85 -41.5577 -46.0309
    endloop
  endfacet
  facet normal -1 0 0
    outer loop
      vertex 27.85 -42.0409 -50.3126
      vertex 27.85 -41.7909 -50.4798
      vertex 27.85 -42.0104 -50.3373
    endloop
  endfacet
  facet normal -1 0 0
    outer loop
      vertex 27.85 -41.7909 -50.4798
      vertex 27.85 -42.0409 -50.3126
      vertex 27.85 -41.7909 -46.1497
    endloop
  endfacet
  facet normal -1 0 0
    outer loop
      vertex 27.85 -42.0409 -46.3169
      vertex 27.85 -41.7909 -46.1497
      vertex 27.85 -42.0409 -50.3126
    endloop
  endfacet
  facet normal -1 0 0
    outer loop
      vertex 27.85 -41.7909 -46.1497
      vertex 27.85 -42.0409 -46.3169
      vertex 27.85 -42.0104 -46.2922
    endloop
  endfacet
  facet normal 0 0.891005 -0.453994
    outer loop
      vertex 37.85 -38.3758 -49.5648
      vertex 33.85 -38.257 -49.3316
      vertex 37.85 -38.257 -49.3316
    endloop
  endfacet
  facet normal 0 0.891005 -0.453994
    outer loop
      vertex 33.85 -38.257 -49.3316
      vertex 37.85 -38.3758 -49.5648
      vertex 33.85 -38.3758 -49.5648
    endloop
  endfacet
  facet normal 0 0.838671 -0.544638
    outer loop
      vertex 37.85 -38.5183 -49.7842
      vertex 33.85 -38.3758 -49.5648
      vertex 37.85 -38.3758 -49.5648
    endloop
  endfacet
  facet normal 0 0.838671 -0.544638
    outer loop
      vertex 33.85 -38.3758 -49.5648
      vertex 37.85 -38.5183 -49.7842
      vertex 33.85 -38.5183 -49.7842
    endloop
  endfacet
  facet normal 0 0.965923 -0.258828
    outer loop
      vertex 37.85 -38.1632 -49.0873
      vertex 33.85 -38.0955 -48.8345
      vertex 37.85 -38.0955 -48.8345
    endloop
  endfacet
  facet normal 0 0.965923 -0.258828
    outer loop
      vertex 33.85 -38.0955 -48.8345
      vertex 37.85 -38.1632 -49.0873
      vertex 33.85 -38.1632 -49.0873
    endloop
  endfacet
  facet normal 0 0.99863 -0.0523339
    outer loop
      vertex 37.85 -38.0546 -48.5761
      vertex 33.85 -38.0409 -48.3148
      vertex 37.85 -38.0409 -48.3148
    endloop
  endfacet
  facet normal 0 0.99863 -0.0523339
    outer loop
      vertex 33.85 -38.0409 -48.3148
      vertex 37.85 -38.0546 -48.5761
      vertex 33.85 -38.0546 -48.5761
    endloop
  endfacet
  facet normal 0 -0.0523339 0.99863
    outer loop
      vertex 27.85 -40.5409 -45.8148
      vertex 37.85 -40.8022 -45.8284
      vertex 37.85 -40.5409 -45.8148
    endloop
  endfacet
  facet normal 0 -0.0523339 0.99863
    outer loop
      vertex 37.85 -40.8022 -45.8284
      vertex 27.85 -40.5409 -45.8148
      vertex 27.85 -40.8022 -45.8284
    endloop
  endfacet
  facet normal 0 -0.99863 0.0523339
    outer loop
      vertex 33.85 -43.0409 -48.3148
      vertex 37.85 -43.0272 -48.0534
      vertex 33.85 -43.0272 -48.0534
    endloop
  endfacet
  facet normal 0 -0.99863 0.0523339
    outer loop
      vertex 37.85 -43.0272 -48.0534
      vertex 33.85 -43.0409 -48.3148
      vertex 37.85 -43.0409 -48.3148
    endloop
  endfacet
  facet normal 0 -0.965923 0.258828
    outer loop
      vertex 33.85 -42.9863 -47.795
      vertex 37.85 -42.9185 -47.5422
      vertex 33.85 -42.9185 -47.5422
    endloop
  endfacet
  facet normal 0 -0.965923 0.258828
    outer loop
      vertex 37.85 -42.9185 -47.5422
      vertex 33.85 -42.9863 -47.795
      vertex 37.85 -42.9863 -47.795
    endloop
  endfacet
  facet normal 0 -0.777143 0.629324
    outer loop
      vertex 33.85 -42.5634 -46.8453
      vertex 37.85 -42.3988 -46.6419
      vertex 33.85 -42.3988 -46.6419
    endloop
  endfacet
  facet normal 0 -0.777143 0.629324
    outer loop
      vertex 37.85 -42.3988 -46.6419
      vertex 33.85 -42.5634 -46.8453
      vertex 37.85 -42.5634 -46.8453
    endloop
  endfacet
  facet normal 0 -0.891005 0.453994
    outer loop
      vertex 33.85 -42.8248 -47.2979
      vertex 37.85 -42.706 -47.0648
      vertex 33.85 -42.706 -47.0648
    endloop
  endfacet
  facet normal 0 -0.891005 0.453994
    outer loop
      vertex 37.85 -42.706 -47.0648
      vertex 33.85 -42.8248 -47.2979
      vertex 37.85 -42.8248 -47.2979
    endloop
  endfacet
  facet normal -4.57114e-07 -0.629324 0.777143
    outer loop
      vertex 37.85 -42.0104 -46.2922
      vertex 33.85 -42.0409 -46.3169
      vertex 37.85 -42.2137 -46.4569
    endloop
  endfacet
  facet normal 0 -0.62936 0.777114
    outer loop
      vertex 27.85 -42.0104 -46.2922
      vertex 33.85 -42.0409 -46.3169
      vertex 37.85 -42.0104 -46.2922
    endloop
  endfacet
  facet normal 0 -0.62936 0.777114
    outer loop
      vertex 33.85 -42.0409 -46.3169
      vertex 27.85 -42.0104 -46.2922
      vertex 27.85 -42.0409 -46.3169
    endloop
  endfacet
  facet normal 0 -0.629318 0.777148
    outer loop
      vertex 37.85 -42.2137 -46.4569
      vertex 33.85 -42.0409 -46.3169
      vertex 33.85 -42.2137 -46.4569
    endloop
  endfacet
  facet normal 0 -0.453994 0.891005
    outer loop
      vertex 27.85 -41.5577 -46.0309
      vertex 37.85 -41.7909 -46.1497
      vertex 37.85 -41.5577 -46.0309
    endloop
  endfacet
  facet normal 0 -0.453994 0.891005
    outer loop
      vertex 37.85 -41.7909 -46.1497
      vertex 27.85 -41.5577 -46.0309
      vertex 27.85 -41.7909 -46.1497
    endloop
  endfacet
  facet normal 0 -0.707107 -0.707107
    outer loop
      vertex 33.85 -42.2137 -50.1726
      vertex 37.85 -42.3988 -49.9876
      vertex 33.85 -42.3988 -49.9876
    endloop
  endfacet
  facet normal 0 -0.707107 -0.707107
    outer loop
      vertex 37.85 -42.3988 -49.9876
      vertex 33.85 -42.2137 -50.1726
      vertex 37.85 -42.2137 -50.1726
    endloop
  endfacet
  facet normal 0 -0.838671 -0.544638
    outer loop
      vertex 33.85 -42.5634 -49.7842
      vertex 37.85 -42.706 -49.5648
      vertex 33.85 -42.706 -49.5648
    endloop
  endfacet
  facet normal 0 -0.838671 -0.544638
    outer loop
      vertex 37.85 -42.706 -49.5648
      vertex 33.85 -42.5634 -49.7842
      vertex 37.85 -42.5634 -49.7842
    endloop
  endfacet
  facet normal 0 -0.933582 -0.358363
    outer loop
      vertex 33.85 -42.8248 -49.3316
      vertex 37.85 -42.9185 -49.0873
      vertex 33.85 -42.9185 -49.0873
    endloop
  endfacet
  facet normal 0 -0.933582 -0.358363
    outer loop
      vertex 37.85 -42.9185 -49.0873
      vertex 33.85 -42.8248 -49.3316
      vertex 37.85 -42.8248 -49.3316
    endloop
  endfacet
  facet normal 0 -0.987688 -0.156434
    outer loop
      vertex 33.85 -42.9863 -48.8345
      vertex 37.85 -43.0272 -48.5761
      vertex 33.85 -43.0272 -48.5761
    endloop
  endfacet
  facet normal 0 -0.987688 -0.156434
    outer loop
      vertex 37.85 -43.0272 -48.5761
      vertex 33.85 -42.9863 -48.8345
      vertex 37.85 -42.9863 -48.8345
    endloop
  endfacet
  facet normal 0 -0.453994 -0.891005
    outer loop
      vertex 27.85 -41.7909 -50.4798
      vertex 37.85 -41.5577 -50.5986
      vertex 37.85 -41.7909 -50.4798
    endloop
  endfacet
  facet normal -0 -0.453994 -0.891005
    outer loop
      vertex 37.85 -41.5577 -50.5986
      vertex 27.85 -41.7909 -50.4798
      vertex 27.85 -41.5577 -50.5986
    endloop
  endfacet
  facet normal 0 -0.629324 -0.777143
    outer loop
      vertex 33.85 -42.2137 -50.1726
      vertex 37.85 -42.0104 -50.3373
      vertex 37.85 -42.2137 -50.1726
    endloop
  endfacet
  facet normal 3.34212e-07 -0.629328 -0.77714
    outer loop
      vertex 33.85 -42.0409 -50.3126
      vertex 37.85 -42.0104 -50.3373
      vertex 33.85 -42.2137 -50.1726
    endloop
  endfacet
  facet normal 0 -0.629302 -0.777161
    outer loop
      vertex 27.85 -42.0104 -50.3373
      vertex 33.85 -42.0409 -50.3126
      vertex 27.85 -42.0409 -50.3126
    endloop
  endfacet
  facet normal 0 -0.629302 -0.777161
    outer loop
      vertex 33.85 -42.0409 -50.3126
      vertex 27.85 -42.0104 -50.3373
      vertex 37.85 -42.0104 -50.3373
    endloop
  endfacet
  facet normal 0 -0.258828 -0.965923
    outer loop
      vertex 27.85 -41.3134 -50.6924
      vertex 37.85 -41.0607 -50.7601
      vertex 37.85 -41.3134 -50.6924
    endloop
  endfacet
  facet normal -0 -0.258828 -0.965923
    outer loop
      vertex 37.85 -41.0607 -50.7601
      vertex 27.85 -41.3134 -50.6924
      vertex 27.85 -41.0607 -50.7601
    endloop
  endfacet
  facet normal 0 -0.0523339 -0.99863
    outer loop
      vertex 27.85 -40.8022 -50.8011
      vertex 37.85 -40.5409 -50.8148
      vertex 37.85 -40.8022 -50.8011
    endloop
  endfacet
  facet normal -0 -0.0523339 -0.99863
    outer loop
      vertex 37.85 -40.5409 -50.8148
      vertex 27.85 -40.8022 -50.8011
      vertex 27.85 -40.5409 -50.8148
    endloop
  endfacet
  facet normal 0 -0.987688 0.156434
    outer loop
      vertex 33.85 -43.0272 -48.0534
      vertex 37.85 -42.9863 -47.795
      vertex 33.85 -42.9863 -47.795
    endloop
  endfacet
  facet normal 0 -0.987688 0.156434
    outer loop
      vertex 37.85 -42.9863 -47.795
      vertex 33.85 -43.0272 -48.0534
      vertex 37.85 -43.0272 -48.0534
    endloop
  endfacet
  facet normal 0 -0.933582 0.358363
    outer loop
      vertex 33.85 -42.9185 -47.5422
      vertex 37.85 -42.8248 -47.2979
      vertex 33.85 -42.8248 -47.2979
    endloop
  endfacet
  facet normal 0 -0.933582 0.358363
    outer loop
      vertex 37.85 -42.8248 -47.2979
      vertex 33.85 -42.9185 -47.5422
      vertex 37.85 -42.9185 -47.5422
    endloop
  endfacet
  facet normal 0 -0.707107 0.707107
    outer loop
      vertex 33.85 -42.3988 -46.6419
      vertex 37.85 -42.2137 -46.4569
      vertex 33.85 -42.2137 -46.4569
    endloop
  endfacet
  facet normal 0 -0.707107 0.707107
    outer loop
      vertex 37.85 -42.2137 -46.4569
      vertex 33.85 -42.3988 -46.6419
      vertex 37.85 -42.3988 -46.6419
    endloop
  endfacet
  facet normal 0 -0.838671 0.544638
    outer loop
      vertex 33.85 -42.706 -47.0648
      vertex 37.85 -42.5634 -46.8453
      vertex 33.85 -42.5634 -46.8453
    endloop
  endfacet
  facet normal 0 -0.838671 0.544638
    outer loop
      vertex 37.85 -42.5634 -46.8453
      vertex 33.85 -42.706 -47.0648
      vertex 37.85 -42.706 -47.0648
    endloop
  endfacet
  facet normal 0 -0.544638 0.838671
    outer loop
      vertex 27.85 -41.7909 -46.1497
      vertex 37.85 -42.0104 -46.2922
      vertex 37.85 -41.7909 -46.1497
    endloop
  endfacet
  facet normal 0 -0.544638 0.838671
    outer loop
      vertex 37.85 -42.0104 -46.2922
      vertex 27.85 -41.7909 -46.1497
      vertex 27.85 -42.0104 -46.2922
    endloop
  endfacet
  facet normal 0 -0.156434 0.987688
    outer loop
      vertex 27.85 -40.8022 -45.8284
      vertex 37.85 -41.0607 -45.8694
      vertex 37.85 -40.8022 -45.8284
    endloop
  endfacet
  facet normal 0 -0.156434 0.987688
    outer loop
      vertex 37.85 -41.0607 -45.8694
      vertex 27.85 -40.8022 -45.8284
      vertex 27.85 -41.0607 -45.8694
    endloop
  endfacet
  facet normal 0 -0.258828 0.965923
    outer loop
      vertex 27.85 -41.0607 -45.8694
      vertex 37.85 -41.3134 -45.9371
      vertex 37.85 -41.0607 -45.8694
    endloop
  endfacet
  facet normal 0 -0.258828 0.965923
    outer loop
      vertex 37.85 -41.3134 -45.9371
      vertex 27.85 -41.0607 -45.8694
      vertex 27.85 -41.3134 -45.9371
    endloop
  endfacet
  facet normal 0 -0.777143 -0.629324
    outer loop
      vertex 33.85 -42.3988 -49.9876
      vertex 37.85 -42.5634 -49.7842
      vertex 33.85 -42.5634 -49.7842
    endloop
  endfacet
  facet normal 0 -0.777143 -0.629324
    outer loop
      vertex 37.85 -42.5634 -49.7842
      vertex 33.85 -42.3988 -49.9876
      vertex 37.85 -42.3988 -49.9876
    endloop
  endfacet
  facet normal 0 -0.891005 -0.453994
    outer loop
      vertex 33.85 -42.706 -49.5648
      vertex 37.85 -42.8248 -49.3316
      vertex 33.85 -42.8248 -49.3316
    endloop
  endfacet
  facet normal 0 -0.891005 -0.453994
    outer loop
      vertex 37.85 -42.8248 -49.3316
      vertex 33.85 -42.706 -49.5648
      vertex 37.85 -42.706 -49.5648
    endloop
  endfacet
  facet normal 0 -0.965923 -0.258828
    outer loop
      vertex 33.85 -42.9185 -49.0873
      vertex 37.85 -42.9863 -48.8345
      vertex 33.85 -42.9863 -48.8345
    endloop
  endfacet
  facet normal 0 -0.965923 -0.258828
    outer loop
      vertex 37.85 -42.9863 -48.8345
      vertex 33.85 -42.9185 -49.0873
      vertex 37.85 -42.9185 -49.0873
    endloop
  endfacet
  facet normal 0 -0.544638 -0.838671
    outer loop
      vertex 27.85 -42.0104 -50.3373
      vertex 37.85 -41.7909 -50.4798
      vertex 37.85 -42.0104 -50.3373
    endloop
  endfacet
  facet normal -0 -0.544638 -0.838671
    outer loop
      vertex 37.85 -41.7909 -50.4798
      vertex 27.85 -42.0104 -50.3373
      vertex 27.85 -41.7909 -50.4798
    endloop
  endfacet
  facet normal 0 -0.156434 -0.987688
    outer loop
      vertex 27.85 -41.0607 -50.7601
      vertex 37.85 -40.8022 -50.8011
      vertex 37.85 -41.0607 -50.7601
    endloop
  endfacet
  facet normal -0 -0.156434 -0.987688
    outer loop
      vertex 37.85 -40.8022 -50.8011
      vertex 27.85 -41.0607 -50.7601
      vertex 27.85 -40.8022 -50.8011
    endloop
  endfacet
  facet normal -1 0 0
    outer loop
      vertex 33.85 -38.0546 -48.5761
      vertex 33.85 -38.0546 -48.0534
      vertex 33.85 -38.0409 -48.3148
    endloop
  endfacet
  facet normal -1 0 0
    outer loop
      vertex 33.85 -38.0955 -48.8345
      vertex 33.85 -38.0546 -48.0534
      vertex 33.85 -38.0546 -48.5761
    endloop
  endfacet
  facet normal -1 0 0
    outer loop
      vertex 33.85 -38.0955 -48.8345
      vertex 33.85 -38.0955 -47.795
      vertex 33.85 -38.0546 -48.0534
    endloop
  endfacet
  facet normal -1 0 0
    outer loop
      vertex 33.85 -38.1632 -49.0873
      vertex 33.85 -38.0955 -47.795
      vertex 33.85 -38.0955 -48.8345
    endloop
  endfacet
  facet normal -1 0 0
    outer loop
      vertex 33.85 -38.1632 -49.0873
      vertex 33.85 -38.1632 -47.5422
      vertex 33.85 -38.0955 -47.795
    endloop
  endfacet
  facet normal -1 0 0
    outer loop
      vertex 33.85 -38.257 -49.3316
      vertex 33.85 -38.1632 -47.5422
      vertex 33.85 -38.1632 -49.0873
    endloop
  endfacet
  facet normal -1 0 0
    outer loop
      vertex 33.85 -38.257 -49.3316
      vertex 33.85 -38.257 -47.2979
      vertex 33.85 -38.1632 -47.5422
    endloop
  endfacet
  facet normal -1 0 0
    outer loop
      vertex 33.85 -38.3758 -49.5648
      vertex 33.85 -38.257 -47.2979
      vertex 33.85 -38.257 -49.3316
    endloop
  endfacet
  facet normal -1 0 0
    outer loop
      vertex 33.85 -38.3758 -49.5648
      vertex 33.85 -38.3758 -47.0648
      vertex 33.85 -38.257 -47.2979
    endloop
  endfacet
  facet normal -1 0 0
    outer loop
      vertex 33.85 -38.5183 -49.7842
      vertex 33.85 -38.3758 -47.0648
      vertex 33.85 -38.3758 -49.5648
    endloop
  endfacet
  facet normal -1 0 0
    outer loop
      vertex 33.85 -38.5183 -49.7842
      vertex 33.85 -38.5183 -46.8453
      vertex 33.85 -38.3758 -47.0648
    endloop
  endfacet
  facet normal -1 0 0
    outer loop
      vertex 33.85 -38.683 -49.9876
      vertex 33.85 -38.5183 -46.8453
      vertex 33.85 -38.5183 -49.7842
    endloop
  endfacet
  facet normal -1 0 0
    outer loop
      vertex 33.85 -38.683 -49.9876
      vertex 33.85 -38.683 -46.6419
      vertex 33.85 -38.5183 -46.8453
    endloop
  endfacet
  facet normal -1 0 0
    outer loop
      vertex 33.85 -38.8681 -50.1726
      vertex 33.85 -38.683 -46.6419
      vertex 33.85 -38.683 -49.9876
    endloop
  endfacet
  facet normal -1 0 0
    outer loop
      vertex 33.85 -38.8681 -50.1726
      vertex 33.85 -38.8681 -46.4569
      vertex 33.85 -38.683 -46.6419
    endloop
  endfacet
  facet normal -1 0 0
    outer loop
      vertex 33.85 -39.0409 -50.3126
      vertex 33.85 -38.8681 -46.4569
      vertex 33.85 -38.8681 -50.1726
    endloop
  endfacet
  facet normal -1 -0 0
    outer loop
      vertex 33.85 -38.8681 -46.4569
      vertex 33.85 -39.0409 -50.3126
      vertex 33.85 -39.0409 -46.3169
    endloop
  endfacet
  facet normal 0 1 -0
    outer loop
      vertex 33.85 -39.0409 -50.3126
      vertex 27.85 -39.0409 -46.3169
      vertex 33.85 -39.0409 -46.3169
    endloop
  endfacet
  facet normal 0 1 0
    outer loop
      vertex 27.85 -39.0409 -46.3169
      vertex 33.85 -39.0409 -50.3126
      vertex 27.85 -39.0409 -50.3126
    endloop
  endfacet
  facet normal 0 -1 0
    outer loop
      vertex 27.85 -42.0409 -50.3126
      vertex 33.85 -42.0409 -46.3169
      vertex 27.85 -42.0409 -46.3169
    endloop
  endfacet
  facet normal 0 -1 -0
    outer loop
      vertex 33.85 -42.0409 -46.3169
      vertex 27.85 -42.0409 -50.3126
      vertex 33.85 -42.0409 -50.3126
    endloop
  endfacet
  facet normal -1 0 0
    outer loop
      vertex 33.85 -42.2137 -50.1726
      vertex 33.85 -42.0409 -46.3169
      vertex 33.85 -42.0409 -50.3126
    endloop
  endfacet
  facet normal -1 0 0
    outer loop
      vertex 33.85 -42.2137 -50.1726
      vertex 33.85 -42.2137 -46.4569
      vertex 33.85 -42.0409 -46.3169
    endloop
  endfacet
  facet normal -1 0 0
    outer loop
      vertex 33.85 -42.3988 -49.9876
      vertex 33.85 -42.2137 -46.4569
      vertex 33.85 -42.2137 -50.1726
    endloop
  endfacet
  facet normal -1 0 0
    outer loop
      vertex 33.85 -42.3988 -49.9876
      vertex 33.85 -42.3988 -46.6419
      vertex 33.85 -42.2137 -46.4569
    endloop
  endfacet
  facet normal -1 0 0
    outer loop
      vertex 33.85 -42.5634 -49.7842
      vertex 33.85 -42.3988 -46.6419
      vertex 33.85 -42.3988 -49.9876
    endloop
  endfacet
  facet normal -1 0 0
    outer loop
      vertex 33.85 -42.5634 -49.7842
      vertex 33.85 -42.5634 -46.8453
      vertex 33.85 -42.3988 -46.6419
    endloop
  endfacet
  facet normal -1 0 0
    outer loop
      vertex 33.85 -42.706 -49.5648
      vertex 33.85 -42.5634 -46.8453
      vertex 33.85 -42.5634 -49.7842
    endloop
  endfacet
  facet normal -1 0 0
    outer loop
      vertex 33.85 -42.706 -49.5648
      vertex 33.85 -42.706 -47.0648
      vertex 33.85 -42.5634 -46.8453
    endloop
  endfacet
  facet normal -1 0 0
    outer loop
      vertex 33.85 -42.8248 -49.3316
      vertex 33.85 -42.706 -47.0648
      vertex 33.85 -42.706 -49.5648
    endloop
  endfacet
  facet normal -1 0 0
    outer loop
      vertex 33.85 -42.8248 -49.3316
      vertex 33.85 -42.8248 -47.2979
      vertex 33.85 -42.706 -47.0648
    endloop
  endfacet
  facet normal -1 0 0
    outer loop
      vertex 33.85 -42.9185 -49.0873
      vertex 33.85 -42.8248 -47.2979
      vertex 33.85 -42.8248 -49.3316
    endloop
  endfacet
  facet normal -1 0 0
    outer loop
      vertex 33.85 -42.9185 -49.0873
      vertex 33.85 -42.9185 -47.5422
      vertex 33.85 -42.8248 -47.2979
    endloop
  endfacet
  facet normal -1 0 0
    outer loop
      vertex 33.85 -42.9863 -48.8345
      vertex 33.85 -42.9185 -47.5422
      vertex 33.85 -42.9185 -49.0873
    endloop
  endfacet
  facet normal -1 0 0
    outer loop
      vertex 33.85 -42.9863 -48.8345
      vertex 33.85 -42.9863 -47.795
      vertex 33.85 -42.9185 -47.5422
    endloop
  endfacet
  facet normal -1 0 0
    outer loop
      vertex 33.85 -43.0272 -48.5761
      vertex 33.85 -42.9863 -47.795
      vertex 33.85 -42.9863 -48.8345
    endloop
  endfacet
  facet normal -1 0 0
    outer loop
      vertex 33.85 -43.0272 -48.5761
      vertex 33.85 -43.0272 -48.0534
      vertex 33.85 -42.9863 -47.795
    endloop
  endfacet
  facet normal -1 0 -0
    outer loop
      vertex 33.85 -43.0272 -48.0534
      vertex 33.85 -43.0272 -48.5761
      vertex 33.85 -43.0409 -48.3148
    endloop
  endfacet
endsolid OpenSCAD_Model
